# xmcd
#
# Track frame offsets:
# 150
# 21268
# 57783
# 80774
# 109494
# 129152
# 150262
# 174340
# 200365
# 225484
# 246068
# 263099
#
# Disc length: 3755 seconds
#
#
# Revision: 0
# Processed by: cddbd v1.5.2PL0 Copyright (c) Steve Scherf et al.
# Submitted via: FreeRIP 2.951 
#
DISCID=8f0ea90c
DTITLE=Eric Clapton - Superbest
DYEAR=1900
DGENRE=Blues
TTITLE0=Born In Time
TTITLE1=Double Trouble
TTITLE2=It All Depends
TTITLE3=It's Probably Me
TTITLE4=Knocking On Heavens Door
TTITLE5=Layla
TTITLE6=My Fathers Eyes
TTITLE7=Pilgrim
TTITLE8=Running On Faith
TTITLE9=Tears In Heaven
TTITLE10=Wonderfull Tonight
TTITLE11=You Were There
EXTD=
EXTT0=
EXTT1=
EXTT2=
EXTT3=
EXTT4=
EXTT5=
EXTT6=
EXTT7=
EXTT8=
EXTT9=
EXTT10=
EXTT11=
PLAYORDER=
